<svg width="254" height="250" viewBox="0 0 254 250" fill="none" xmlns="http://www.w3.org/2000/svg">
<path d="M122.738 202.051C121.23 223.764 123.04 250 123.04 250H129.674C129.674 250 127.865 215.621 128.468 202.051C129.071 188.48 129.373 185.766 131.785 167.672C134.198 149.578 134.499 126.659 134.499 123.945C136.309 120.929 141.134 118.818 144.15 118.215C147.768 121.834 149.276 126.96 160.736 130.881C172.195 134.801 194.323 130.277 210.495 126.357C226.666 122.437 244.27 114.596 246.683 112.485C249.095 110.374 253.016 110.676 253.016 110.676C253.016 110.676 247.587 100.121 241.858 95.2955C236.128 90.4704 228.287 84.1375 212.304 81.4234C196.019 79.9156 186.972 79.3124 170.386 90.4704C153.8 101.628 144.15 112.485 144.15 112.485C144.15 112.485 134.198 120.326 134.198 118.818C134.198 117.612 132.087 98.9144 132.388 98.0097C132.69 97.1049 141.435 96.2002 149.578 88.0579C157.72 79.9156 160.736 78.7093 160.736 78.7093C160.736 78.7093 158.926 72.6779 149.578 75.9952C140.229 79.3124 131.785 96.2002 131.182 96.2002C130.579 96.2002 131.785 69.0591 127.865 54.2823C123.945 39.5054 97.4065 12.6659 94.6924 10.2533C91.9783 7.84077 86.5501 0 86.5501 0C86.5501 0 88.661 10.2533 88.661 14.7768C88.661 19.3004 85.6454 25.3317 88.661 40.1086C91.6767 54.8854 92.5814 56.6948 99.8191 69.0591C107.057 81.4234 129.071 95.8987 129.373 97.1049C129.674 98.3112 130.277 113.39 129.674 113.39C129.071 113.39 119.421 88.0579 88.661 71.4716C57.9011 54.8854 32.8709 56.9964 19.3004 60.6152C5.72979 64.234 0 65.4403 0 65.4403C0 65.4403 12.3643 69.9638 17.1894 74.7889C22.0145 79.614 27.1411 85.3438 56.3932 98.6128C85.6454 111.882 118.818 101.628 118.818 101.628C118.818 101.628 122.738 104.343 126.659 116.405C130.579 128.468 128.468 132.69 128.468 132.69C128.468 132.69 119.421 124.246 104.644 121.834C89.8673 119.421 80.8203 126.659 80.8203 126.659C80.8203 126.659 69.3607 134.801 65.4403 147.467C61.5199 160.133 61.8215 171.592 61.5199 179.735C61.2183 187.877 57.9011 193.004 57.9011 193.004C57.9011 193.004 62.123 188.48 70.5669 188.48C79.0109 188.48 109.771 184.56 126.055 163.752C123.945 182.449 124.246 180.338 122.738 202.051Z" fill="white"/>
</svg>
